# xmcd CD database file
#
# Track frame offsets:
#	150
#	23031
#	32354
#	63617
#	90287
#	119889
#	138764
#	159076
#	176884
#
# Disc length: 2437 seconds
#
# Revision: 0
# Processed by: cddbd v1.5.2PL0 Copyright (c) Steve Scherf et al.
# Submitted via: CDex 1.51
#
DISCID=6b098309
DTITLE=Chicken Shack - Roadies Concerto
DYEAR=1981
DGENRE=Blues
TTITLE0=Tell Me
TTITLE1=Why I Sing The Blues
TTITLE2=Back Door Man
TTITLE3=Black Night
TTITLE4=So Far Back
TTITLE5=The End (Prisoner)
TTITLE6=Poor Boy
TTITLE7=Shake Your Money Maker
TTITLE8=Hideaway
EXTD=YEAR: 1981
EXTT0=
EXTT1=
EXTT2=
EXTT3=
EXTT4=
EXTT5=
EXTT6=
EXTT7=
EXTT8=
PLAYORDER=
